<mxfile host="app.diagrams.net" agent="Mozilla/5.0 (Macintosh; Intel Mac OS X 10_15_7) AppleWebKit/537.36 (KHTML, like Gecko) Chrome/137.0.0.0 Safari/537.36" version="28.2.3">
  <diagram name="Page-1" id="TpRLyhkcVstj0ETSq6uz">
    <mxGraphModel dx="1051" dy="622" grid="1" gridSize="10" guides="1" tooltips="1" connect="1" arrows="1" fold="1" page="1" pageScale="1" pageWidth="850" pageHeight="1100" math="0" shadow="0">
      <root>
        <mxCell id="0" />
        <mxCell id="1" parent="0" />
        <mxCell id="YY4n6s3h3aQu9x3gMu6D-2" value="Employee" style="swimlane;whiteSpace=wrap;html=1;" vertex="1" parent="1">
          <mxGeometry x="70" y="90" width="200" height="200" as="geometry" />
        </mxCell>
        <mxCell id="YY4n6s3h3aQu9x3gMu6D-3" value="&lt;div&gt;- social security number (pk)&lt;/div&gt;- first name&lt;div&gt;-last name&lt;/div&gt;&lt;div&gt;- street address&lt;/div&gt;&lt;div&gt;- salary&amp;nbsp;&lt;/div&gt;&lt;div&gt;- gender&lt;/div&gt;&lt;div&gt;-birth date&lt;/div&gt;" style="text;html=1;align=center;verticalAlign=middle;resizable=0;points=[];autosize=1;strokeColor=none;fillColor=none;" vertex="1" parent="YY4n6s3h3aQu9x3gMu6D-2">
          <mxGeometry y="45" width="170" height="110" as="geometry" />
        </mxCell>
        <mxCell id="YY4n6s3h3aQu9x3gMu6D-5" value="Department" style="swimlane;whiteSpace=wrap;html=1;" vertex="1" parent="1">
          <mxGeometry x="530" y="90" width="200" height="200" as="geometry" />
        </mxCell>
        <mxCell id="YY4n6s3h3aQu9x3gMu6D-6" value="&lt;div&gt;&lt;br&gt;&lt;/div&gt;" style="text;html=1;align=center;verticalAlign=middle;resizable=0;points=[];autosize=1;strokeColor=none;fillColor=none;" vertex="1" parent="YY4n6s3h3aQu9x3gMu6D-5">
          <mxGeometry x="75" y="85" width="20" height="30" as="geometry" />
        </mxCell>
        <mxCell id="YY4n6s3h3aQu9x3gMu6D-15" value="- DepartmentNumber (pk)&lt;div&gt;- DepartementName&lt;/div&gt;" style="text;html=1;align=center;verticalAlign=middle;resizable=0;points=[];autosize=1;strokeColor=none;fillColor=none;" vertex="1" parent="YY4n6s3h3aQu9x3gMu6D-5">
          <mxGeometry x="20" y="45" width="160" height="40" as="geometry" />
        </mxCell>
        <mxCell id="YY4n6s3h3aQu9x3gMu6D-7" value="" style="endArrow=none;html=1;rounded=0;exitX=1;exitY=0.5;exitDx=0;exitDy=0;entryX=0;entryY=0.5;entryDx=0;entryDy=0;" edge="1" parent="1" source="YY4n6s3h3aQu9x3gMu6D-2" target="YY4n6s3h3aQu9x3gMu6D-5">
          <mxGeometry width="50" height="50" relative="1" as="geometry">
            <mxPoint x="380" y="300" as="sourcePoint" />
            <mxPoint x="430" y="250" as="targetPoint" />
          </mxGeometry>
        </mxCell>
        <mxCell id="YY4n6s3h3aQu9x3gMu6D-8" value="Projects" style="swimlane;whiteSpace=wrap;html=1;" vertex="1" parent="1">
          <mxGeometry x="300" y="350" width="200" height="200" as="geometry" />
        </mxCell>
        <mxCell id="YY4n6s3h3aQu9x3gMu6D-9" value="&lt;div&gt;&lt;br&gt;&lt;/div&gt;" style="text;html=1;align=center;verticalAlign=middle;resizable=0;points=[];autosize=1;strokeColor=none;fillColor=none;" vertex="1" parent="YY4n6s3h3aQu9x3gMu6D-8">
          <mxGeometry x="75" y="85" width="20" height="30" as="geometry" />
        </mxCell>
        <mxCell id="YY4n6s3h3aQu9x3gMu6D-16" value="&lt;div&gt;&lt;div&gt;- ProjectNumber&amp;nbsp;&lt;span style=&quot;background-color: transparent; color: light-dark(rgb(0, 0, 0), rgb(255, 255, 255));&quot;&gt;(pk&lt;/span&gt;&lt;span style=&quot;background-color: transparent; color: light-dark(rgb(0, 0, 0), rgb(255, 255, 255));&quot;&gt;)&lt;/span&gt;&lt;/div&gt;&lt;div&gt;- ProjectName&amp;nbsp;&lt;/div&gt;&lt;div&gt;- Location&lt;/div&gt;&lt;/div&gt;" style="text;html=1;align=center;verticalAlign=middle;resizable=0;points=[];autosize=1;strokeColor=none;fillColor=none;" vertex="1" parent="YY4n6s3h3aQu9x3gMu6D-8">
          <mxGeometry x="35" y="55" width="130" height="60" as="geometry" />
        </mxCell>
        <mxCell id="YY4n6s3h3aQu9x3gMu6D-10" value="" style="endArrow=none;html=1;rounded=0;exitX=0;exitY=0.5;exitDx=0;exitDy=0;" edge="1" parent="1" source="YY4n6s3h3aQu9x3gMu6D-8">
          <mxGeometry width="50" height="50" relative="1" as="geometry">
            <mxPoint x="60" y="480" as="sourcePoint" />
            <mxPoint x="200" y="290" as="targetPoint" />
          </mxGeometry>
        </mxCell>
        <mxCell id="YY4n6s3h3aQu9x3gMu6D-12" value="N" style="text;html=1;align=center;verticalAlign=middle;resizable=0;points=[];autosize=1;strokeColor=none;fillColor=none;" vertex="1" parent="1">
          <mxGeometry x="275" y="148" width="30" height="30" as="geometry" />
        </mxCell>
        <mxCell id="YY4n6s3h3aQu9x3gMu6D-13" value="1" style="text;html=1;align=center;verticalAlign=middle;resizable=0;points=[];autosize=1;strokeColor=none;fillColor=none;" vertex="1" parent="1">
          <mxGeometry x="495" y="148" width="30" height="30" as="geometry" />
        </mxCell>
        <mxCell id="YY4n6s3h3aQu9x3gMu6D-17" value="N" style="text;html=1;align=center;verticalAlign=middle;resizable=0;points=[];autosize=1;strokeColor=none;fillColor=none;" vertex="1" parent="1">
          <mxGeometry x="205" y="288" width="30" height="30" as="geometry" />
        </mxCell>
        <mxCell id="YY4n6s3h3aQu9x3gMu6D-18" value="M" style="text;html=1;align=center;verticalAlign=middle;resizable=0;points=[];autosize=1;strokeColor=none;fillColor=none;" vertex="1" parent="1">
          <mxGeometry x="265" y="378" width="30" height="30" as="geometry" />
        </mxCell>
      </root>
    </mxGraphModel>
  </diagram>
</mxfile>
